<svg width="258" height="258" viewBox="0 0 258 258" fill="none" xmlns="http://www.w3.org/2000/svg">
<g filter="url(#filter0_dd_2_7)">
<circle cx="129" cy="125" r="125" fill="#1B1645"/>
</g>
<path d="M226.322 135.9L218.856 106.795C218.642 105.939 217.952 105.273 217.096 105.059L188.253 97.9488C188.038 97.9015 187.801 97.8777 187.587 97.8777C186.897 97.8065 186.184 98.0204 185.661 98.5435L136.985 147.219L130.542 122.061C130.327 121.205 129.638 120.539 128.782 120.325L104.004 114.214L152.656 65.5623C152.941 65.2769 153.108 64.9204 153.227 64.5635C153.44 64.0881 153.512 63.5412 153.369 63.018L145.903 33.9127C145.688 33.0567 144.999 32.3909 144.143 32.1769L115.299 25.067C114.728 24.9244 114.158 25.0195 113.658 25.2573H113.635C113.492 25.3286 113.373 25.4237 113.23 25.5188C113.112 25.6139 112.945 25.6615 112.85 25.7804L29.8146 108.768C29.8146 108.768 29.6719 109.006 29.5768 109.125C29.0537 109.743 28.8634 110.552 29.1012 111.337L37.1622 139.467C37.4 140.275 38.0183 140.893 38.803 141.108L65.8157 148.859L73.5677 175.848C73.8054 176.657 74.4235 177.275 75.2081 177.489L102.316 185.265L110.092 212.373C110.33 213.181 110.948 213.799 111.732 214.013L139.982 222.122C140.196 222.193 140.433 222.217 140.647 222.217C140.695 222.217 140.743 222.193 140.814 222.193C140.814 222.193 140.838 222.193 140.862 222.193C141.48 222.193 142.098 221.955 142.573 221.48L225.633 138.42C225.918 138.135 226.085 137.778 226.203 137.422C226.417 136.946 226.489 136.399 226.346 135.876L226.322 135.9ZM189.085 168.168L183.021 144.508L196.456 131.097L219.545 137.731L189.108 168.192L189.085 168.168ZM141.979 215.273L135.915 191.614L160.217 167.312L183.307 173.946L141.979 215.273ZM160.717 160.012L154.915 139.8L175.769 144.936L160.717 159.988V160.012ZM179.074 148.455L184.4 169.214L164.117 163.388L179.074 148.432V148.455ZM179.763 140.965L156.127 135.139L186.493 104.773L193.056 127.673L179.763 140.965ZM150.254 140.988L156.817 163.888L132.634 188.071L108.998 182.245L150.254 140.988ZM214.552 109.339L220.615 132.999L197.693 126.412L191.13 103.561L214.552 109.339ZM105.431 178.725L99.3673 155.066L108.118 146.315L131.207 152.949L105.431 178.725ZM108.617 139.015L102.815 118.803L123.669 123.939L108.617 138.991V139.015ZM132.301 148.241L112.018 142.415L126.975 127.458L132.301 148.217V148.241ZM104.742 142.915L96.1096 151.547L72.4738 145.721L98.1785 120.016L104.742 142.915ZM77.5385 67.845L84.1015 90.7442L59.7045 115.141L36.0684 109.315L77.5385 67.845ZM113.563 31.8202L120.127 54.7192L107.048 67.7977L83.4119 61.9717L113.563 31.8202ZM116.369 95.0004L110.306 71.3642L123.527 58.1433L146.616 64.7538L116.369 95.0004ZM88.0012 86.8681L82.1992 66.6562L103.053 71.7923L88.0012 86.8442V86.8681ZM106.358 75.3115L111.685 96.0704L91.4254 90.2446L106.382 75.2877L106.358 75.3115ZM87.5258 94.1442L110.615 100.755L69.0735 142.297L63.0097 118.66L87.5258 94.1442ZM141.622 36.4333L147.686 60.0932L124.763 53.5065L118.2 30.655L141.622 36.4333ZM34.8795 114L55.7335 119.136L40.6815 134.188L34.8795 113.976V114ZM44.0818 137.612L59.0387 122.655L64.3651 143.414L44.1056 137.588L44.0818 137.612ZM77.8238 173.257L71.2612 150.405L94.6831 156.183L100.747 179.843L77.8238 173.257ZM107.809 186.929L128.663 192.065L113.611 207.117L107.809 186.905V186.929ZM117.011 210.542L131.968 195.585L137.295 216.343L117.011 210.518V210.542Z" fill="url(#paint0_linear_2_7)"/>
<defs>
<filter id="filter0_dd_2_7" x="0" y="0" width="258" height="258" filterUnits="userSpaceOnUse" color-interpolation-filters="sRGB">
<feFlood flood-opacity="0" result="BackgroundImageFix"/>
<feColorMatrix in="SourceAlpha" type="matrix" values="0 0 0 0 0 0 0 0 0 0 0 0 0 0 0 0 0 0 127 0" result="hardAlpha"/>
<feOffset dy="4"/>
<feGaussianBlur stdDeviation="2"/>
<feComposite in2="hardAlpha" operator="out"/>
<feColorMatrix type="matrix" values="0 0 0 0 0 0 0 0 0 0 0 0 0 0 0 0 0 0 0.25 0"/>
<feBlend mode="normal" in2="BackgroundImageFix" result="effect1_dropShadow_2_7"/>
<feColorMatrix in="SourceAlpha" type="matrix" values="0 0 0 0 0 0 0 0 0 0 0 0 0 0 0 0 0 0 127 0" result="hardAlpha"/>
<feOffset dy="4"/>
<feGaussianBlur stdDeviation="2"/>
<feComposite in2="hardAlpha" operator="out"/>
<feColorMatrix type="matrix" values="0 0 0 0 0 0 0 0 0 0 0 0 0 0 0 0 0 0 0.25 0"/>
<feBlend mode="normal" in2="effect1_dropShadow_2_7" result="effect2_dropShadow_2_7"/>
<feBlend mode="normal" in="SourceGraphic" in2="effect2_dropShadow_2_7" result="shape"/>
</filter>
<linearGradient id="paint0_linear_2_7" x1="42.6789" y1="154.566" x2="213.625" y2="92.3373" gradientUnits="userSpaceOnUse">
<stop stop-color="#29BCFA"/>
<stop offset="0.43" stop-color="#6464E4"/>
<stop offset="1" stop-color="#B45AFA"/>
</linearGradient>
</defs>
</svg>
