<?xml version="1.0" encoding="UTF-8"?>
<svg xmlns="http://www.w3.org/2000/svg" xmlns:xlink="http://www.w3.org/1999/xlink" width="38px" height="38px" viewBox="0 0 38 38" version="1.1">
<g id="surface1">
<path style=" stroke:none;fill-rule:nonzero;fill:rgb(100%,100%,100%);fill-opacity:1;" d="M 19 38 C 16.433594 38 13.949219 37.496094 11.605469 36.507812 C 9.339844 35.550781 7.308594 34.179688 5.566406 32.433594 C 3.820312 30.691406 2.449219 28.660156 1.492188 26.394531 C 0.503906 24.050781 0 21.566406 0 19 C 0 16.433594 0.503906 13.949219 1.492188 11.605469 C 2.449219 9.339844 3.820312 7.308594 5.566406 5.566406 C 7.308594 3.820312 9.339844 2.449219 11.605469 1.492188 C 13.949219 0.503906 16.433594 0 19 0 C 21.566406 0 24.050781 0.503906 26.394531 1.492188 C 28.660156 2.449219 30.691406 3.820312 32.433594 5.566406 C 34.179688 7.308594 35.550781 9.339844 36.507812 11.605469 C 37.496094 13.949219 38 16.433594 38 19 C 38 21.566406 37.496094 24.050781 36.507812 26.394531 C 35.550781 28.660156 34.179688 30.691406 32.433594 32.433594 C 30.691406 34.179688 28.660156 35.550781 26.394531 36.507812 C 24.050781 37.5 21.566406 38 19 38 Z M 19 38 "/>
<path style=" stroke:none;fill-rule:nonzero;fill:rgb(0%,0%,0%);fill-opacity:1;" d="M 36.992188 19 C 36.992188 28.9375 28.9375 36.992188 19 36.992188 C 9.0625 36.992188 1.007812 28.9375 1.007812 19 C 1.007812 9.0625 9.0625 1.007812 19 1.007812 C 28.9375 1.007812 36.992188 9.0625 36.992188 19 Z M 36.992188 19 "/>
<path style=" stroke:none;fill-rule:nonzero;fill:rgb(100%,100%,100%);fill-opacity:1;" d="M 19.441406 11.84375 C 21.847656 12.058594 23.738281 14.046875 23.796875 16.492188 L 27.484375 18.027344 L 25.5625 14.890625 L 29.648438 10.804688 L 27.207031 8.359375 L 23.707031 11.863281 L 19.445312 4.914062 L 19.445312 11.84375 Z M 19.441406 11.84375 "/>
<path style=" stroke:none;fill-rule:nonzero;fill:rgb(100%,100%,100%);fill-opacity:1;" d="M 23.734375 17.402344 C 23.378906 19.53125 21.621094 21.183594 19.441406 21.382812 L 19.441406 23.910156 L 27.558594 18.992188 Z M 23.734375 17.402344 "/>
<path style=" stroke:none;fill-rule:nonzero;fill:rgb(100%,100%,100%);fill-opacity:1;" d="M 14.289062 17.402344 L 10.464844 18.992188 L 18.578125 23.910156 L 18.578125 21.378906 C 16.402344 21.183594 14.640625 19.53125 14.289062 17.402344 Z M 14.289062 17.402344 "/>
<path style=" stroke:none;fill-rule:nonzero;fill:rgb(100%,100%,100%);fill-opacity:1;" d="M 27.46875 21.574219 L 19.441406 26.4375 L 19.441406 32.878906 L 22.746094 28.222656 L 26.191406 31.671875 L 28.632812 29.230469 L 24.773438 25.367188 Z M 27.46875 21.574219 "/>
<path style=" stroke:none;fill-rule:nonzero;fill:rgb(100%,100%,100%);fill-opacity:1;" d="M 18.578125 26.4375 L 10.554688 21.574219 L 13.25 25.367188 L 9.386719 29.230469 L 11.832031 31.671875 L 15.277344 28.226562 L 18.578125 32.875 Z M 18.578125 26.4375 "/>
<path style=" stroke:none;fill-rule:nonzero;fill:rgb(100%,100%,100%);fill-opacity:1;" d="M 10.535156 18.027344 L 14.226562 16.496094 C 14.285156 14.050781 16.175781 12.058594 18.578125 11.84375 L 18.578125 4.914062 L 14.316406 11.863281 L 10.8125 8.359375 L 8.371094 10.804688 L 12.460938 14.890625 Z M 10.535156 18.027344 "/>
<path style=" stroke:none;fill-rule:nonzero;fill:rgb(100%,100%,100%);fill-opacity:1;" d="M 19.179688 16.0625 C 17.996094 15.699219 17.996094 15.496094 17.996094 15.335938 C 17.996094 15.109375 18.335938 14.796875 18.976562 14.796875 C 19.355469 14.796875 19.988281 14.890625 19.988281 15.523438 L 21.140625 15.523438 C 21.140625 14.402344 20.269531 13.648438 18.976562 13.648438 C 17.589844 13.648438 16.84375 14.515625 16.84375 15.335938 C 16.84375 16.453125 17.824219 16.851562 18.832031 17.160156 C 20.015625 17.523438 20.023438 17.726562 20.023438 17.890625 C 20.023438 18.113281 19.683594 18.425781 19.042969 18.425781 C 18.664062 18.425781 18.03125 18.332031 18.03125 17.699219 L 16.878906 17.699219 C 16.878906 18.824219 17.75 19.578125 19.042969 19.578125 C 20.429688 19.578125 21.175781 18.707031 21.175781 17.890625 C 21.175781 16.769531 20.1875 16.371094 19.179688 16.0625 Z M 19.179688 16.0625 "/>
</g>
</svg>
